<?xml version="1.0" encoding="utf-8"?>
<!-- Svg Vector Icons : http://www.onlinewebfonts.com/icon -->
<!DOCTYPE svg PUBLIC "-//W3C//DTD SVG 1.1//EN" "http://www.w3.org/Graphics/SVG/1.1/DTD/svg11.dtd">
<svg version="1.1" xmlns="http://www.w3.org/2000/svg" xmlns:xlink="http://www.w3.org/1999/xlink" x="0px" y="0px" viewBox="0 0 1000 1000" enable-background="new 0 0 1000 1000" xml:space="preserve">
<metadata> Svg Vector Icons : http://www.onlinewebfonts.com/icon </metadata>
<g><path d="M500,10.6c67.3,0,130.8,12.8,190.5,38.4c59.7,25.6,111.7,60.6,156.1,105c44.4,43.6,79.4,95.2,105,154.9c25.6,59.7,38.4,123.2,38.4,190.5c0,68.1-12.8,131.8-38.4,191.1c-25.6,59.3-60.6,111.1-105,155.5c-44.4,44.4-96.4,79.4-156.1,105c-59.7,25.6-123.2,38.4-190.5,38.4c-67.3,0-130.8-12.8-190.5-38.4c-59.7-25.6-111.7-60.6-156.1-105c-44.4-44.4-79.4-96.2-105-155.5C22.8,631.2,10,567.5,10,499.4c0-67.3,12.8-130.8,38.4-190.5c25.6-59.7,60.6-111.3,105-154.9c44.4-44.4,96.4-79.4,156.1-105C369.2,23.4,432.7,10.6,500,10.6z M744.4,675L568.9,499.4l175.6-175.6L675.6,255L500,430.6L324.4,255l-68.9,68.9l175.6,175.6L255.6,675l68.9,70L500,569.4L675.6,745L744.4,675L744.4,675z"/></g>
</svg>